<?xml version="1.0" encoding="UTF-8" standalone="no"?>
<svg
   xmlns:dc="http://purl.org/dc/elements/1.1/"
   xmlns:cc="http://creativecommons.org/ns#"
   xmlns:rdf="http://www.w3.org/1999/02/22-rdf-syntax-ns#"
   xmlns:svg="http://www.w3.org/2000/svg"
   xmlns="http://www.w3.org/2000/svg"
   xmlns:sodipodi="http://sodipodi.sourceforge.net/DTD/sodipodi-0.dtd"
   xmlns:inkscape="http://www.inkscape.org/namespaces/inkscape"
   id="Layer_2"
   viewBox="0 0 10.80816 9.4488192"
   version="1.1"
   sodipodi:docname="gcn_joystick.svg"
   inkscape:version="0.92.5 (2060ec1f9f, 2020-04-08)"
   width="10.80816"
   height="9.4488192"
   inkscape:export-filename="/home/albert/Documents/02-PROJECTS/msx-joydolphin/msx-joydolphin-v1/images/gcn_joystick.png"
   inkscape:export-xdpi="2273.8401"
   inkscape:export-ydpi="2273.8401">
  <metadata
     id="metadata24">
    <rdf:RDF>
      <cc:Work
         rdf:about="">
        <dc:format>image/svg+xml</dc:format>
        <dc:type
           rdf:resource="http://purl.org/dc/dcmitype/StillImage" />
        <dc:title />
      </cc:Work>
    </rdf:RDF>
  </metadata>
  <defs
     id="defs22" />
  <sodipodi:namedview
     pagecolor="#ffffff"
     bordercolor="#666666"
     borderopacity="1"
     objecttolerance="10"
     gridtolerance="10"
     guidetolerance="10"
     inkscape:pageopacity="0"
     inkscape:pageshadow="2"
     inkscape:window-width="2488"
     inkscape:window-height="1376"
     id="namedview20"
     showgrid="false"
     inkscape:zoom="1.7878788"
     inkscape:cx="-228.49153"
     inkscape:cy="16.779656"
     inkscape:window-x="72"
     inkscape:window-y="27"
     inkscape:window-maximized="1"
     inkscape:current-layer="Layer_2"
     fit-margin-top="0"
     fit-margin-left="0"
     fit-margin-right="0"
     fit-margin-bottom="0" />
  <g
     id="Layer_1-2"
     transform="scale(0.07158196)">
    <path
       d="M 75.5,132 C 33.87,132 0,98.13 0,56.5 0,35.44 8.9,15.18 24.41,0.92 l 1,-0.92 h 100.17 l 1,0.92 c 15.51,14.26 24.41,34.51 24.41,55.58 0,41.63 -33.87,75.5 -75.5,75.5 z M 28.16,7 C 14.7,19.88 7,37.84 7,56.5 7,94.27 37.73,125 75.5,125 113.27,125 144,94.27 144,56.5 144,37.84 136.3,19.88 122.84,7 Z"
       id="path2"
       inkscape:connector-curvature="0" />
    <path
       d="m 122.5,48.76 v 16.48 c 0,1.52 -1.24,2.76 -2.76,2.76 h -16.48 c -1.52,0 -2.76,-1.24 -2.76,-2.76 V 63 h -14 v 2.24 C 86.5,66.76 85.26,68 83.74,68 H 67.26 C 65.74,68 64.5,66.76 64.5,65.24 V 63 h -14 v 2.24 C 50.5,66.76 49.26,68 47.74,68 H 31.26 C 29.74,68 28.5,66.76 28.5,65.24 V 48.76 C 28.5,47.24 29.74,46 31.26,46 h 16.48 c 1.52,0 2.76,1.24 2.76,2.76 V 51 h 14 V 48.76 C 64.5,47.24 65.74,46 67.26,46 h 16.48 c 1.52,0 2.76,1.24 2.76,2.76 V 51 h 14 v -2.24 c 0,-1.52 1.24,-2.76 2.76,-2.76 h 16.48 c 1.52,0 2.76,1.24 2.76,2.76 z"
       id="path4"
       inkscape:connector-curvature="0" />
    <path
       d="M 37.8,40.21 V 23.4 c -1.02,0.48 -2.94,0.89 -4.07,0.99 v -3.66 c 2.15,-0.41 4.3,-1.61 5.57,-3.04 h 3.48 V 40.2 h -4.99 z"
       id="path6"
       inkscape:connector-curvature="0" />
    <path
       d="M 67.44,40.21 V 39.9 c 0,-3.93 1.74,-7.11 6.63,-10.66 3.18,-2.32 4.13,-3.11 4.13,-5.09 0,-1.98 -0.96,-3.04 -2.84,-3.04 -2.22,0 -3.01,1.37 -3.31,3.31 h -4.71 c 0.31,-3.86 2.84,-7.11 8.03,-7.11 5.77,0 7.75,3.45 7.75,6.8 0,3.35 -1.43,4.85 -5.57,7.76 -2.77,1.95 -3.89,3.25 -4.27,4.27 h 10.66 l -0.62,4.07 H 67.43 Z"
       id="path8"
       inkscape:connector-curvature="0" />
    <path
       d="m 103.47,23.5 c 0.31,-2.77 2.25,-6.18 7.89,-6.18 5.19,0 7.52,2.94 7.52,6.12 0,2.7 -1.57,4 -2.8,4.58 v 0.1 c 1.47,0.51 3.66,1.91 3.66,5.4 0,3.25 -1.95,7.11 -8.4,7.11 -6.05,0 -8.1,-3.62 -8.3,-6.59 h 4.75 c 0.31,1.54 1.37,2.84 3.69,2.84 2.32,0 3.38,-1.44 3.38,-3.42 0,-2.08 -1.09,-3.35 -3.69,-3.35 h -2.05 v -3.76 h 1.81 c 2.22,0 3.14,-0.75 3.14,-2.63 0,-1.54 -0.92,-2.6 -2.87,-2.6 -2.29,0 -2.84,1.3 -3.08,2.39 h -4.65 z"
       id="path10"
       inkscape:connector-curvature="0" />
    <path
       d="M 40.74,95.77 V 90.71 H 30.59 v -4.27 l 9.36,-13.15 h 5.33 v 13.46 h 2.73 l -0.48,3.96 h -2.25 v 5.06 z m 0,-13.02 c 0,-2.43 0,-3.79 0.1,-5.19 -0.89,1.88 -3.83,6.15 -5.94,9.19 h 5.84 z"
       id="path12"
       inkscape:connector-curvature="0" />
    <path
       d="m 82.58,77.29 h -9.02 c -0.14,1.2 -0.51,3.35 -0.68,4.27 0.85,-0.68 2.12,-1.2 4.07,-1.2 4.44,0 6.94,3.21 6.94,7.48 0,4.27 -2.39,8.34 -8.47,8.34 -4.44,0 -7.69,-2.29 -8.2,-6.29 h 4.89 c 0.44,1.54 1.5,2.53 3.42,2.53 2.32,0 3.45,-1.71 3.45,-4.17 0,-2.46 -0.85,-4.03 -3.45,-4.03 -2.08,0 -2.94,0.92 -3.45,2.25 l -4.41,-0.58 c 0.62,-2.83 1.57,-9.53 1.95,-12.61 h 13.67 l -0.68,4 z"
       id="path14"
       inkscape:connector-curvature="0" />
    <path
       d="m 114.78,78.76 c -0.27,-1.09 -0.89,-2.15 -2.87,-2.15 -3.01,0 -3.79,2.8 -3.93,5.84 0.96,-1.16 2.56,-2.08 5.09,-2.08 4.13,0 7.04,3.04 7.04,7.45 0,4.82 -3.07,8.37 -8.23,8.37 -6.53,0 -8.71,-5.02 -8.71,-11.38 0,-5.84 2.08,-11.92 8.99,-11.92 4.89,0 7.14,3.08 7.38,5.88 h -4.75 z m 0.44,9.46 c 0,-2.15 -0.79,-4.07 -3.49,-4.07 -2.19,0 -3.45,1.3 -3.45,3.89 0,1.81 0.85,4.24 3.45,4.24 2.39,0 3.49,-1.78 3.49,-4.07 z"
       id="path16"
       inkscape:connector-curvature="0" />
  </g>
</svg>
