<?xml version="1.0" encoding="UTF-8" standalone="no"?>
<svg
   xmlns:dc="http://purl.org/dc/elements/1.1/"
   xmlns:cc="http://creativecommons.org/ns#"
   xmlns:rdf="http://www.w3.org/1999/02/22-rdf-syntax-ns#"
   xmlns:svg="http://www.w3.org/2000/svg"
   xmlns="http://www.w3.org/2000/svg"
   xmlns:sodipodi="http://sodipodi.sourceforge.net/DTD/sodipodi-0.dtd"
   xmlns:inkscape="http://www.inkscape.org/namespaces/inkscape"
   inkscape:version="0.92.5 (2060ec1f9f, 2020-04-08)"
   sodipodi:docname="msx-joydolphin-logo-bw-14mm.svg"
   viewBox="0 0 52.91336 50.598022"
   height="50.598022"
   width="52.913361"
   id="svg833"
   version="1.1">
  <metadata
     id="metadata839">
    <rdf:RDF>
      <cc:Work
         rdf:about="">
        <dc:format>image/svg+xml</dc:format>
        <dc:type
           rdf:resource="http://purl.org/dc/dcmitype/StillImage" />
        <dc:title></dc:title>
      </cc:Work>
    </rdf:RDF>
  </metadata>
  <defs
     id="defs837" />
  <sodipodi:namedview
     inkscape:current-layer="g841"
     inkscape:window-maximized="1"
     inkscape:window-y="27"
     inkscape:window-x="72"
     inkscape:cy="25.299014"
     inkscape:cx="26.456681"
     inkscape:zoom="22.965324"
     inkscape:snap-global="true"
     showgrid="false"
     id="namedview835"
     inkscape:window-height="1376"
     inkscape:window-width="2488"
     inkscape:pageshadow="2"
     inkscape:pageopacity="0"
     guidetolerance="10"
     gridtolerance="10"
     objecttolerance="10"
     borderopacity="1"
     bordercolor="#666666"
     pagecolor="#ffffff"
     fit-margin-top="0"
     fit-margin-left="0"
     fit-margin-right="0"
     fit-margin-bottom="0" />
  <g
     style="display:inline"
     id="g841"
     inkscape:label="Image"
     inkscape:groupmode="layer"
     transform="translate(-8.5081991,-149.52587)">
    <path
       style="color:#000000;font-style:normal;font-variant:normal;font-weight:normal;font-stretch:normal;font-size:medium;line-height:normal;font-family:sans-serif;font-variant-ligatures:normal;font-variant-position:normal;font-variant-caps:normal;font-variant-numeric:normal;font-variant-alternates:normal;font-feature-settings:normal;text-indent:0;text-align:start;text-decoration:none;text-decoration-line:none;text-decoration-style:solid;text-decoration-color:#000000;letter-spacing:normal;word-spacing:normal;text-transform:none;writing-mode:lr-tb;direction:ltr;text-orientation:mixed;dominant-baseline:auto;baseline-shift:baseline;text-anchor:start;white-space:normal;shape-padding:0;clip-rule:nonzero;display:inline;overflow:visible;visibility:visible;opacity:1;isolation:auto;mix-blend-mode:normal;color-interpolation:sRGB;color-interpolation-filters:linearRGB;solid-color:#000000;solid-opacity:1;vector-effect:none;fill:#000000;fill-opacity:1;fill-rule:nonzero;stroke:none;stroke-width:1.29776704;stroke-linecap:butt;stroke-linejoin:miter;stroke-miterlimit:4;stroke-dasharray:none;stroke-dashoffset:0;stroke-opacity:1;color-rendering:auto;image-rendering:auto;shape-rendering:auto;text-rendering:auto;enable-background:accumulate"
       d="m 24.290824,184.26759 c -2.776576,0 -4.767776,2.37355 -4.284919,5.10856 l 1.016484,5.76225 c 0.483624,2.73481 3.047527,4.8863 5.824351,4.8863 h 16.531743 c 2.776539,0 5.33691,-2.15162 5.821083,-4.8863 l 1.019751,-5.76225 c 0.482834,-2.73486 -1.510896,-5.10856 -4.288186,-5.10856 z m 0,1.29757 h 21.640307 c 2.080541,0 3.371975,1.53646 3.010228,3.58547 l -1.019752,5.76225 c -0.362741,2.04881 -2.464499,3.81426 -4.543124,3.81426 H 26.84674 c -2.079007,0 -4.184107,-1.76558 -4.546393,-3.81426 l -1.016483,-5.76225 c -0.361721,-2.04886 0.927371,-3.58547 3.00696,-3.58547 z"
       id="path4052"
       inkscape:connector-curvature="0" />
    <g
       id="g944"
       transform="matrix(0.19233168,0,0,0.20318796,18.285349,127.99184)">
      <g
         id="g3624"
         transform="matrix(0.52520385,0,0,0.52520385,56.826006,277.10971)">
        <circle
           style="fill:#000000;fill-opacity:1;stroke:#000000;stroke-width:2.59739995"
           id="circle4062"
           transform="matrix(1.64978,0,0,1.56185,-41.1174,-43.5434)"
           r="5.8189998"
           cy="60.5"
           cx="3.0239999" />
        <circle
           style="fill:#000000;fill-opacity:1;stroke:#000000;stroke-width:2.59739995"
           id="circle4064"
           transform="matrix(1.64978,0,0,1.56185,-41.1174,-43.5434)"
           r="5.8189998"
           cy="60.5"
           cx="31.67" />
        <circle
           style="fill:#000000;fill-opacity:1;stroke:#000000;stroke-width:2.59739995"
           id="circle4066"
           transform="matrix(1.64978,0,0,1.56185,-41.1174,-43.5434)"
           r="5.8150001"
           cy="60.5"
           cx="60.310001" />
        <path
           style="fill:#000000;fill-opacity:1;stroke:#000000;stroke-width:4.16938019"
           id="path4068"
           d="m 105.62228,41.861682 c 5.3024,0 9.59842,4.070181 9.59842,9.089967 0,5.018224 -4.29602,9.085281 -9.59842,9.085281 -5.29414,0 -9.595118,-4.067057 -9.595118,-9.085281 0,-5.019786 4.300978,-9.089967 9.595118,-9.089967 z"
           inkscape:connector-curvature="0" />
        <circle
           style="fill:#000000;fill-opacity:1;stroke:#000000;stroke-width:2.59739995"
           id="circle4070"
           transform="matrix(1.64978,0,0,1.56185,-41.1174,-43.5434)"
           r="5.8189998"
           cy="60.5"
           cx="117.588" />
        <circle
           style="fill:#000000;fill-opacity:1;stroke:#000000;stroke-width:2.59739995"
           id="circle4072"
           transform="matrix(1.64978,0,0,1.56185,-41.1174,-43.5434)"
           r="5.8169999"
           cy="89.436996"
           cx="17.348" />
        <circle
           style="fill:#000000;fill-opacity:1;stroke:#000000;stroke-width:2.59739995"
           id="circle4074"
           transform="matrix(1.64978,0,0,1.56185,-41.1174,-43.5434)"
           r="5.8169999"
           cy="89.436996"
           cx="45.990002" />
        <circle
           style="fill:#000000;fill-opacity:1;stroke:#000000;stroke-width:2.59739995"
           id="circle4076"
           transform="matrix(1.64978,0,0,1.56185,-41.1174,-43.5434)"
           r="5.8169999"
           cy="89.436996"
           cx="74.624001" />
        <path
           style="fill:#000000;fill-opacity:1;stroke:#000000;stroke-width:4.16938019"
           id="path4078"
           d="m 129.25703,87.056935 c 5.29744,0 9.58852,4.067058 9.58852,9.082158 0,5.016667 -4.29108,9.083717 -9.58852,9.083717 -5.30569,0 -9.59512,-4.06705 -9.59512,-9.083717 0,-5.013539 4.29108,-9.082158 9.59512,-9.082158 z"
           inkscape:connector-curvature="0" />
      </g>
    </g>
    <path
       style="color:#000000;font-style:normal;font-variant:normal;font-weight:normal;font-stretch:normal;font-size:medium;line-height:normal;font-family:sans-serif;font-variant-ligatures:normal;font-variant-position:normal;font-variant-caps:normal;font-variant-numeric:normal;font-variant-alternates:normal;font-feature-settings:normal;text-indent:0;text-align:start;text-decoration:none;text-decoration-line:none;text-decoration-style:solid;text-decoration-color:#000000;letter-spacing:normal;word-spacing:normal;text-transform:none;writing-mode:lr-tb;direction:ltr;text-orientation:mixed;dominant-baseline:auto;baseline-shift:baseline;text-anchor:start;white-space:normal;shape-padding:0;clip-rule:nonzero;display:inline;overflow:visible;visibility:visible;isolation:auto;mix-blend-mode:normal;color-interpolation:sRGB;color-interpolation-filters:linearRGB;solid-color:#000000;solid-opacity:1;vector-effect:none;fill:#000000;fill-opacity:1;fill-rule:nonzero;stroke:none;stroke-width:0.54903585;stroke-linecap:butt;stroke-linejoin:miter;stroke-miterlimit:4;stroke-dasharray:none;stroke-dashoffset:0;stroke-opacity:1;color-rendering:auto;image-rendering:auto;shape-rendering:auto;text-rendering:auto;enable-background:accumulate"
       d="m 31.756575,149.80518 c -0.04608,-0.0154 -0.106787,-0.009 -0.189568,0.0392 -0.33107,0.19259 -6.61837,6.23036 -5.651124,12.77958 -7.055229,2.23797 -14.32435,9.46658 -16.5938438,15.71463 -2.2694941,6.24804 3.4580038,11.34474 3.4580038,11.34474 0,0 0.02294,4.97213 0.578513,5.99104 0.555573,1.01889 1.738808,0.48373 1.738808,0.48373 0,0 0.722016,-1.73722 1.729001,-1.79437 0,0 1.915424,-11.13328 9.945847,-15.47277 0,0 8.264037,9.28166 15.041338,7.32456 0,0 0.470236,-0.2619 -0.212448,-0.59812 -22.169829,-18.72792 30.675306,-10.81918 5.536727,14.27979 0,0 8.025539,-5.61959 8.798627,-8.47179 3.39602,3.36625 -3.257549,9.92255 -0.983799,7.66775 1.600068,-1.83367 10.271718,-8.10169 3.866558,-15.40413 0,0 -1.170344,-2.27575 -0.889014,-4.36663 -2.105894,-8.96953 -8.348256,-17.76037 -22.790796,-18.65949 -0.008,-0.007 -3.204399,-1.21126 -3.245556,-10.55705 0,0 9.62e-4,-0.25457 -0.137274,-0.30069 z M 14.39465,181.47304 c 0.372876,0.0137 0.663492,0.16996 0.663492,0.16996 l 0.486997,0.23533 -0.372601,0.39548 c 0,0 -0.130997,0.14355 -0.20918,0.29416 -0.03842,0.0741 -0.05749,0.14066 -0.05883,0.16342 l 0.317038,0.27128 -0.297428,0.30396 c -0.15709,0.16025 -0.289373,0.18485 -0.451044,0.21899 -0.16167,0.0341 -0.344714,0.0468 -0.54256,-0.003 -0.197847,-0.05 -0.421721,-0.18743 -0.54256,-0.41836 -0.120839,-0.23092 -0.128559,-0.50898 -0.05556,-0.81057 0.07024,-0.29021 0.232679,-0.52551 0.441238,-0.66023 0.208559,-0.13471 0.434565,-0.16684 0.621003,-0.16015 z m -0.16669,0.82365 c -0.005,0.003 -0.01886,-8e-5 -0.02288,0.003 -0.02877,0.0185 -0.0646,0.0448 -0.09805,0.18303 -0.04408,0.18222 -0.01642,0.24497 -0.01307,0.25167 0.0033,0.007 -0.0075,0.003 0.03268,0.0131 -5.02e-4,-0.014 -0.01683,-0.0291 -0.01634,-0.0425 0.0058,-0.1643 0.06273,-0.2884 0.117664,-0.40855 z"
       id="path897"
       inkscape:connector-curvature="0" />
    <path
       inkscape:connector-curvature="0"
       style="color:#000000;font-style:normal;font-variant:normal;font-weight:normal;font-stretch:normal;font-size:medium;line-height:normal;font-family:sans-serif;font-variant-ligatures:normal;font-variant-position:normal;font-variant-caps:normal;font-variant-numeric:normal;font-variant-alternates:normal;font-feature-settings:normal;text-indent:0;text-align:start;text-decoration:none;text-decoration-line:none;text-decoration-style:solid;text-decoration-color:#000000;letter-spacing:normal;word-spacing:normal;text-transform:none;writing-mode:lr-tb;direction:ltr;text-orientation:mixed;dominant-baseline:auto;baseline-shift:baseline;text-anchor:start;white-space:normal;shape-padding:0;clip-rule:nonzero;display:inline;overflow:visible;visibility:visible;isolation:auto;mix-blend-mode:normal;color-interpolation:sRGB;color-interpolation-filters:linearRGB;solid-color:#000000;solid-opacity:1;vector-effect:none;fill:#000000;fill-opacity:1;fill-rule:nonzero;stroke:none;stroke-width:0.54903585;stroke-linecap:butt;stroke-linejoin:miter;stroke-miterlimit:4;stroke-dasharray:none;stroke-dashoffset:0;stroke-opacity:1;color-rendering:auto;image-rendering:auto;shape-rendering:auto;text-rendering:auto;enable-background:accumulate"
       d="m 30.203126,150.81973 c -0.629165,0.70471 -1.424247,1.69281 -2.180178,2.88431 -1.477661,2.32913 -2.80187,5.4449 -2.396657,8.73264 -7.098705,2.34556 -14.274257,9.50762 -16.5625169,15.80733 -2.2777598,6.2708 3.1662749,11.30117 3.4451349,11.55409 6.01e-4,0.0997 0.0057,1.19536 0.07847,2.51531 0.03799,0.68933 0.09318,1.41123 0.175104,2.03218 0.08192,0.62094 0.172665,1.12505 0.356079,1.46143 0.326595,0.59896 0.893245,0.77458 1.322413,0.76699 0.42917,-0.008 0.768507,-0.1645 0.768507,-0.1645 l 0.09833,-0.0447 0.04162,-0.0997 c 0,0 0.172332,-0.4111 0.459998,-0.82497 0.287662,-0.41388 0.683514,-0.78183 1.033562,-0.80171 l 0.217962,-0.0117 0.03707,-0.21512 c 0,0 1.910029,-10.84627 9.633302,-15.17039 0.223273,0.24707 2.090004,2.29564 4.861493,4.27001 2.941751,2.09569 6.768717,3.98634 10.297041,2.96745 l 0.02995,-0.008 0.02726,-0.0151 c 0,0 0.20302,-0.0797 0.279694,-0.33352 0.03834,-0.12701 0.01155,-0.30197 -0.08073,-0.42982 -0.09229,-0.12785 -0.227853,-0.22508 -0.422414,-0.32092 l 0.05576,0.0367 c -2.754331,-2.32673 -4.328122,-4.23438 -5.025268,-5.70097 -0.697149,-1.46658 -0.546123,-2.4337 0.09319,-3.09787 0.639319,-0.66417 1.864261,-1.03683 3.393988,-1.04633 1.529727,-0.01 3.348974,0.33459 5.14457,1.01713 3.591191,1.36513 7.068736,4.07492 8.109959,7.93699 1.041224,3.86206 -0.306286,8.95226 -6.551797,15.18792 l 0.3515,0.419 c 0,0 2.014249,-1.41039 4.127862,-3.18121 1.056807,-0.8854 2.139145,-1.86113 3.012832,-2.80282 0.708685,-0.76384 1.270532,-1.49311 1.579559,-2.17303 0.536985,0.7053 0.696291,1.5103 0.606297,2.36592 -0.104808,0.99642 -0.532035,2.03477 -0.999676,2.9057 -0.467642,0.8709 -0.970942,1.57216 -1.222204,1.92274 -0.0628,0.0877 -0.108573,0.15095 -0.14179,0.20222 -0.01657,0.0256 -0.02847,0.008 -0.05723,0.12049 -0.0072,0.028 -0.0318,0.0745 0.01322,0.17986 0.02254,0.0527 0.0776,0.11363 0.137205,0.14157 0.05962,0.0278 0.110899,0.0278 0.144602,0.0244 0.134829,-0.0134 0.124671,-0.0423 0.142259,-0.0549 0.07034,-0.0497 0.09942,-0.0842 0.178181,-0.16099 0.07877,-0.0768 0.185809,-0.18329 0.327844,-0.32414 l 0.0072,-0.007 0.0065,-0.007 c 0.37017,-0.42423 1.22318,-1.17383 2.169586,-2.1419 0.946405,-0.96807 1.995551,-2.16697 2.797048,-3.55192 0.801498,-1.38496 1.356701,-2.96184 1.291558,-4.67069 -0.06466,-1.69608 -0.751098,-3.50967 -2.359258,-5.35853 -0.0203,-0.0405 -1.118266,-2.24479 -0.856306,-4.19168 l 0.0069,-0.05 -0.01138,-0.0492 c -1.062181,-4.52411 -3.171044,-9.01645 -6.847873,-12.49289 -3.66682,-3.46698 -8.892212,-5.90981 -16.135583,-6.37227 -0.01765,-0.008 -0.04132,-0.0207 -0.07537,-0.0408 -0.07459,-0.0438 -0.186664,-0.11814 -0.324597,-0.23709 -0.275843,-0.23788 -0.656206,-0.65371 -1.044239,-1.36211 -0.775811,-1.41633 -1.58057,-4.0068 -1.60153,-8.64551 0,0 0.01372,-0.14759 -0.06295,-0.31807 -0.03834,-0.0852 -0.117492,-0.1989 -0.259902,-0.24643 -0.142426,-0.0475 -0.292877,-0.008 -0.415799,0.0636 -0.07378,0.043 -0.103185,0.0741 -0.171854,0.13455 -0.06866,0.0606 -0.155396,0.14107 -0.258809,0.24169 -0.206847,0.2013 -0.480006,0.48267 -0.794587,0.83502 z m 0.409579,0.3657 c 0.306202,-0.34297 0.571322,-0.61587 0.767849,-0.80713 0.09818,-0.0956 0.179329,-0.17086 0.238635,-0.22312 0.02631,4.67281 0.836335,7.34531 1.667858,8.86335 0.417259,0.76177 0.840321,1.23234 1.167344,1.51429 0.163512,0.14091 0.302695,0.23475 0.404614,0.29463 0.05096,0.03 0.09271,0.0515 0.122881,0.0661 0.003,0.001 0.0045,0.002 0.0072,0.003 l 0.03971,0.0343 0.09236,0.007 c 7.168342,0.44627 12.26861,2.8427 15.849984,6.22889 3.572711,3.378 5.635713,7.75294 6.681835,12.18733 -0.265187,2.19607 0.922074,4.46269 0.922074,4.46269 l 0.0154,0.0298 0.02217,0.0256 c 1.568203,1.78788 2.19489,3.48184 2.255019,5.05914 0.06013,1.57731 -0.452048,3.05071 -1.21815,4.3745 -0.766102,1.32379 -1.784824,2.49202 -2.714454,3.44291 -0.395406,0.40447 -0.595294,0.5994 -0.931769,0.92085 0.03514,-0.0631 0.06804,-0.1071 0.10295,-0.17203 0.487199,-0.90736 0.944927,-1.99856 1.061611,-3.10793 0.116688,-1.10939 -0.126429,-2.25471 -1.038916,-3.15918 l -0.334907,-0.3319 -0.123416,0.45513 c -0.167856,0.61929 -0.788627,1.49773 -1.637001,2.41214 -0.848375,0.9144 -1.91699,1.87881 -2.962994,2.75515 -0.592493,0.49641 -1.068531,0.84929 -1.602708,1.26531 4.51308,-5.30798 5.524727,-9.82675 4.557903,-13.41285 -1.104019,-4.09499 -4.738753,-6.8984 -8.445046,-8.30728 -1.853144,-0.70444 -3.728738,-1.06282 -5.342881,-1.0528 -1.614146,0.01 -2.982085,0.3788 -3.78648,1.21447 -0.804397,0.83566 -0.947979,2.12702 -0.193401,3.71445 0.754581,1.5874 2.37883,3.52929 5.166954,5.88456 l 0.02592,0.0216 0.02985,0.0151 c 0.104373,0.0514 0.125575,0.0783 0.156383,0.10626 -3.224796,0.87451 -6.870988,-0.87156 -9.725886,-2.90537 -2.884172,-2.05465 -4.932968,-4.35392 -4.932968,-4.35392 l -0.14435,-0.16233 -0.191234,0.10326 c -7.990763,4.31807 -9.953852,14.97578 -10.045219,15.492 -0.54203,0.12802 -0.950679,0.56951 -1.238759,0.98399 -0.261,0.3755 -0.402722,0.68001 -0.461731,0.81222 -0.08704,0.0318 -0.244512,0.0825 -0.465821,0.0864 -0.30016,0.005 -0.601538,-0.0609 -0.830518,-0.48092 -0.09436,-0.17306 -0.215045,-0.67259 -0.293918,-1.27042 -0.07887,-0.59784 -0.133758,-1.3096 -0.171278,-1.99061 -0.07504,-1.36203 -0.08098,-2.59963 -0.08098,-2.59963 l -8.42e-4,-0.12217 -0.0912,-0.0815 c 0,0 -5.5851616,-4.98482 -3.3826302,-11.04851 2.2284632,-6.13508 9.4749542,-13.3428 16.4196132,-15.54571 l 0.222763,-0.0706 -0.03412,-0.23125 c -0.469282,-3.17751 0.826085,-6.2649 2.298331,-8.58548 0.736124,-1.16029 1.513833,-2.12687 2.126239,-2.8128 z"
       id="path899" />
    <path
       sodipodi:nodetypes="ccccc"
       id="path879"
       d="m 15.803953,193.81312 c 0,0 1.344089,-13.51839 10.469589,-16.90603 l 0.556882,1.63923 c -0.116388,0.17698 -7.491565,3.25845 -10.236355,15.5631 0,0 -0.699372,0.43628 -0.790116,-0.2963 z"
       style="display:inline;fill:#000000;fill-opacity:1;stroke:none;stroke-width:0.14204133px;stroke-linecap:butt;stroke-linejoin:miter;stroke-opacity:1"
       inkscape:connector-curvature="0" />
    <path
       sodipodi:nodetypes="ccsc"
       id="path881"
       d="m 31.669704,151.76198 c 0.02172,0.15831 0.171054,6.44968 2.732877,8.724 0,0 -2.839296,0.69676 -2.991606,-2.5429 -0.152299,-3.23968 0.258729,-6.1811 0.258729,-6.1811 z"
       style="fill:#000000;fill-opacity:1;stroke:none;stroke-width:0.15085256px;stroke-linecap:butt;stroke-linejoin:miter;stroke-opacity:1"
       inkscape:connector-curvature="0" />
    <path
       sodipodi:nodetypes="ccscsccccc"
       id="path883"
       d="m 51.58952,169.50358 c -19.673961,-15.4023 -41.6644657,7.53052 -40.95807,11.2357 -0.470504,3.94339 4.247073,6.59139 4.247073,6.59139 -1.866363,6.17333 0.395815,8.01431 0.395815,8.01431 0,0 -1.30394,1.6666 -1.836562,-0.1404 -0.532622,-1.80701 -0.479326,-4.62468 -0.599995,-5.66002 -11.7629501,-11.13573 7.36031,-25.3491 13.161347,-26.6597 -0.213569,-7.9732 6.048465,-13.08027 5.634923,-12.44213 -0.67217,1.01987 -6.11623,6.93683 -2.864615,11.48328 -1.565971,-0.43174 14.49958,-4.37542 23.98337,7.15052"
       style="fill:#000000;fill-opacity:1;stroke:none;stroke-width:0.14526564px;stroke-linecap:butt;stroke-linejoin:miter;stroke-opacity:1"
       inkscape:connector-curvature="0" />
    <path
       sodipodi:nodetypes="cccc"
       id="path885"
       d="m 37.314375,184.52649 -0.88459,1.0233 c 0,0 -8.839625,-3.67154 -9.48258,-8.92476 2.653063,-4.30114 5.217164,5.72781 10.36717,7.90146 z"
       style="fill:#000000;fill-opacity:1;stroke:none;stroke-width:0.14526564px;stroke-linecap:butt;stroke-linejoin:miter;stroke-opacity:1"
       inkscape:connector-curvature="0" />
    <path
       sodipodi:nodetypes="ccscccccc"
       id="path887"
       d="m 38.443285,183.11635 c 0,0 -7.011183,-5.6825 -1.759705,-10.87625 0,0 0.819612,-0.43411 0.520733,0.45014 -0.298878,0.88426 -0.241896,0.97642 -0.241896,0.97642 0,0 7.66881,-0.58613 8.63328,1.28443 l -0.741069,0.85728 c -0.377643,-0.18151 -6.664237,-2.01386 -8.52692,0.67102 0,0 -1.518309,2.76308 2.425666,6.27824 0,0 -0.04722,0.27709 -0.310089,0.35872 z"
       style="display:inline;fill:#000000;fill-opacity:1;stroke:none;stroke-width:0.14526564px;stroke-linecap:butt;stroke-linejoin:miter;stroke-opacity:1"
       inkscape:connector-curvature="0" />
    <path
       sodipodi:nodetypes="ccc"
       id="path889"
       d="m 55.503359,191.78414 c 0.111183,0.45884 -4.864313,5.80196 -6.100583,6.08407 0,0 7.221305,-9.49829 6.100583,-6.08407 z"
       style="fill:#000000;fill-opacity:1;stroke:none;stroke-width:0.14526564px;stroke-linecap:butt;stroke-linejoin:miter;stroke-opacity:1"
       inkscape:connector-curvature="0" />
    <path
       sodipodi:nodetypes="cccsc"
       id="path891"
       d="m 57.818159,195.16236 c 3.545608,-6.58282 1.598248,-9.2872 1.598248,-9.2872 -4.475499,-1.95371 -1.740046,-6.10378 -1.740046,-6.10378 -0.20492,0.18987 0.744717,3.79593 2.149741,5.74588 3.016324,4.18623 -1.760766,11.14586 -2.007943,9.6451 z"
       style="fill:#000000;fill-opacity:1;stroke:none;stroke-width:0.14526564px;stroke-linecap:butt;stroke-linejoin:miter;stroke-opacity:1"
       inkscape:connector-curvature="0" />
  </g>
</svg>
