<?xml version="1.0" encoding="UTF-8" standalone="no"?>
<svg
   xmlns:dc="http://purl.org/dc/elements/1.1/"
   xmlns:cc="http://creativecommons.org/ns#"
   xmlns:rdf="http://www.w3.org/1999/02/22-rdf-syntax-ns#"
   xmlns:svg="http://www.w3.org/2000/svg"
   xmlns="http://www.w3.org/2000/svg"
   xmlns:sodipodi="http://sodipodi.sourceforge.net/DTD/sodipodi-0.dtd"
   xmlns:inkscape="http://www.inkscape.org/namespaces/inkscape"
   inkscape:version="0.92.5 (2060ec1f9f, 2020-04-08)"
   sodipodi:docname="msx-joydolphin-logo-color.svg"
   viewBox="0 0 364.25259 348.31677"
   height="348.31677"
   width="364.25259"
   id="svg833"
   version="1.1"
   inkscape:export-filename="/home/albert/Documents/02-PROJECTS/msx-joydolphin/msx-joydolphin-v1/graphics/msx-joydolphin-logo-color.png"
   inkscape:export-xdpi="168.67"
   inkscape:export-ydpi="168.67">
  <metadata
     id="metadata839">
    <rdf:RDF>
      <cc:Work
         rdf:about="">
        <dc:format>image/svg+xml</dc:format>
        <dc:type
           rdf:resource="http://purl.org/dc/dcmitype/StillImage" />
        <dc:title />
      </cc:Work>
    </rdf:RDF>
  </metadata>
  <defs
     id="defs837" />
  <sodipodi:namedview
     inkscape:current-layer="g841"
     inkscape:window-maximized="1"
     inkscape:window-y="27"
     inkscape:window-x="72"
     inkscape:cy="172.95937"
     inkscape:cx="73.314777"
     inkscape:zoom="3.3360439"
     inkscape:snap-global="true"
     showgrid="false"
     id="namedview835"
     inkscape:window-height="1376"
     inkscape:window-width="2488"
     inkscape:pageshadow="2"
     inkscape:pageopacity="0"
     guidetolerance="10"
     gridtolerance="10"
     objecttolerance="10"
     borderopacity="1"
     bordercolor="#666666"
     pagecolor="#ffffff"
     fit-margin-top="0"
     fit-margin-left="0"
     fit-margin-right="0"
     fit-margin-bottom="0" />
  <g
     style="display:inline"
     id="g841"
     inkscape:label="Image"
     inkscape:groupmode="layer"
     transform="translate(-8.5081993,148.19385)">
    <g
       id="g1037"
       transform="matrix(0.7160623,0,0,0.7160623,62.555193,-20.836672)">
      <path
         inkscape:connector-curvature="0"
         d="m 76.248003,162.38465 c -23.342626,0 -39.118522,18.80494 -35.0588,41.79998 l 9.795259,55.38773 c 4.066133,22.99344 26.492354,41.81922 49.833378,41.81922 h 158.9205 c 23.33781,0 45.76243,-18.82578 49.83338,-41.81922 l 9.79363,-55.38773 c 4.05974,-22.99504 -11.70815,-41.79998 -35.05879,-41.79998 z"
         id="path4052"
         style="display:inline;fill:#ffffff;fill-opacity:1;stroke:#ed1c24;stroke-width:12.47622013;stroke-miterlimit:4;stroke-dasharray:none;stroke-opacity:1" />
      <g
         transform="matrix(1.8490007,0,0,1.9533688,18.515597,-384.86018)"
         id="g944">
        <g
           transform="matrix(0.52520385,0,0,0.52520385,56.826006,277.10971)"
           id="g3624">
          <circle
             cx="3.0239999"
             cy="60.5"
             r="5.8189998"
             transform="matrix(1.64978,0,0,1.56185,-41.1174,-43.5434)"
             id="circle4062"
             style="fill:#ed1c24;fill-opacity:1;stroke:#ed1c24;stroke-width:2.59739995;stroke-opacity:1" />
          <circle
             cx="31.67"
             cy="60.5"
             r="5.8189998"
             transform="matrix(1.64978,0,0,1.56185,-41.1174,-43.5434)"
             id="circle4064"
             style="fill:#ed1c24;fill-opacity:1;stroke:#ed1c24;stroke-width:2.59739995;stroke-opacity:1" />
          <circle
             cx="60.310001"
             cy="60.5"
             r="5.8150001"
             transform="matrix(1.64978,0,0,1.56185,-41.1174,-43.5434)"
             id="circle4066"
             style="fill:#ed1c24;fill-opacity:1;stroke:#ed1c24;stroke-width:2.59739995;stroke-opacity:1" />
          <path
             inkscape:connector-curvature="0"
             d="m 105.62228,41.861682 c 5.3024,0 9.59842,4.070181 9.59842,9.089967 0,5.018224 -4.29602,9.085281 -9.59842,9.085281 -5.29414,0 -9.595118,-4.067057 -9.595118,-9.085281 0,-5.019786 4.300978,-9.089967 9.595118,-9.089967 z"
             id="path4068"
             style="fill:#ed1c24;fill-opacity:1;stroke:#ed1c24;stroke-width:4.16938019;stroke-opacity:1" />
          <circle
             cx="117.588"
             cy="60.5"
             r="5.8189998"
             transform="matrix(1.64978,0,0,1.56185,-41.1174,-43.5434)"
             id="circle4070"
             style="fill:#ed1c24;fill-opacity:1;stroke:#ed1c24;stroke-width:2.59739995;stroke-opacity:1" />
          <circle
             cx="17.348"
             cy="89.436996"
             r="5.8169999"
             transform="matrix(1.64978,0,0,1.56185,-41.1174,-43.5434)"
             id="circle4072"
             style="fill:#ed1c24;fill-opacity:1;stroke:#ed1c24;stroke-width:2.59739995;stroke-opacity:1" />
          <circle
             cx="45.990002"
             cy="89.436996"
             r="5.8169999"
             transform="matrix(1.64978,0,0,1.56185,-41.1174,-43.5434)"
             id="circle4074"
             style="fill:#ed1c24;fill-opacity:1;stroke:#ed1c24;stroke-width:2.59739995;stroke-opacity:1" />
          <circle
             cx="74.624001"
             cy="89.436996"
             r="5.8169999"
             transform="matrix(1.64978,0,0,1.56185,-41.1174,-43.5434)"
             id="circle4076"
             style="fill:#ed1c24;fill-opacity:1;stroke:#ed1c24;stroke-width:2.59739995;stroke-opacity:1" />
          <path
             inkscape:connector-curvature="0"
             d="m 129.25703,87.056935 c 5.29744,0 9.58852,4.067058 9.58852,9.082158 0,5.016667 -4.29108,9.083717 -9.58852,9.083717 -5.30569,0 -9.59512,-4.06705 -9.59512,-9.083717 0,-5.013539 4.29108,-9.082158 9.59512,-9.082158 z"
             id="path4078"
             style="fill:#ed1c24;fill-opacity:1;stroke:#ed1c24;stroke-width:4.16938019;stroke-opacity:1" />
        </g>
      </g>
    </g>
    <g
       style="opacity:1"
       id="g895"
       transform="rotate(-49.158299,86.035399,116.59328)">
      <path
         id="path897"
         d="M 245.80021,34.412279 C 202.38324,7.7450006 132.01404,2.4242979 89.258242,18.733211 46.502442,35.042124 45.731075,87.825702 45.731075,87.825702 c 0,0 -25.783584,22.508858 -28.5887,29.989168 -2.805116,7.48031 5.298552,11.22046 5.298552,11.22046 0,0 12.311342,-4.05183 17.142375,0.93504 0,0 66.600308,-40.14211 125.351898,-17.85702 0,0 -11.12447,84.80742 29.57852,111.2918 0,0 3.48384,1.27536 2.1615,-3.79363 -2.27441,-199.768041 194.42841,111.04739 -49.45422,93.12291 0,0 65.39938,16.48635 83.73354,7.67214 -2.24226,32.84037 -66.34844,27.70655 -44.36966,29.397 16.75278,0.0779 88.43448,17.03218 97.62903,-49.19972 0,0 6.58311,-16.3521 18.73861,-24.29993 37.2313,-51.34707 54.91131,-123.43128 -5.42505,-202.693419 0,-0.07242 -8.11894,-22.141626 40.36702,-64.4297169 0,0 2.38165,-2.0121545 -0.11178,-2.8692733 -2.49344,-0.8571187 -62.22975,-6.4203616 -91.9825,28.1007682 z"
         style="color:#000000;font-style:normal;font-variant:normal;font-weight:normal;font-stretch:normal;font-size:medium;line-height:normal;font-family:sans-serif;font-variant-ligatures:normal;font-variant-position:normal;font-variant-caps:normal;font-variant-numeric:normal;font-variant-alternates:normal;font-feature-settings:normal;text-indent:0;text-align:start;text-decoration:none;text-decoration-line:none;text-decoration-style:solid;text-decoration-color:#000000;letter-spacing:normal;word-spacing:normal;text-transform:none;writing-mode:lr-tb;direction:ltr;text-orientation:mixed;dominant-baseline:auto;baseline-shift:baseline;text-anchor:start;white-space:normal;shape-padding:0;clip-rule:nonzero;display:inline;overflow:visible;visibility:visible;isolation:auto;mix-blend-mode:normal;color-interpolation:sRGB;color-interpolation-filters:linearRGB;solid-color:#000000;solid-opacity:1;vector-effect:none;fill:#7395ee;fill-opacity:1;fill-rule:nonzero;stroke:none;stroke-width:3.77953005;stroke-linecap:butt;stroke-linejoin:miter;stroke-miterlimit:4;stroke-dasharray:none;stroke-dashoffset:0;stroke-opacity:1;color-rendering:auto;image-rendering:auto;shape-rendering:auto;text-rendering:auto;enable-background:accumulate"
         inkscape:connector-curvature="0" />
      <path
         id="path899"
         d="M 326.57227,3.5957031 C 320.06986,3.4916233 311.34464,3.7992672 301.73633,5.2265625 282.95443,8.0165759 260.76649,15.147257 245.46875,32.058594 201.29577,5.6492177 131.69332,0.52302925 88.583984,16.966797 45.672464,33.335108 43.98362,84.332966 43.921875,86.923828 c -0.516962,0.45235 -6.199346,5.411346 -12.746094,11.732422 -3.41885,3.301 -6.92993,6.83847 -9.794922,10.06055 -2.864991,3.22208 -5.081746,5.96408 -6.007812,8.43359 -1.648987,4.3973 -0.01263,8.13898 1.958984,10.33984 1.971613,2.20087 4.316407,3.26172 4.316407,3.26172 l 0.675781,0.31055 0.707031,-0.23242 c 0,0 2.916751,-0.95324 6.367188,-1.31836 3.450436,-0.36513 7.14877,0.0399 8.828124,1.77344 l 1.044922,1.08007 1.28711,-0.77539 c 0,0 65.084406,-38.881761 122.373046,-18.12695 -0.28153,2.27504 -2.54629,21.2191 -0.35156,44.54102 2.32955,24.75466 9.712,53.19636 30.90234,66.98437 l 0.17969,0.11719 0.20117,0.0742 c 0,0 1.32852,0.69895 2.9961,-0.0449 0.83378,-0.37194 1.62458,-1.29927 1.875,-2.35547 0.25041,-1.05621 0.14639,-2.1999 -0.23047,-3.64453 l 0.0605,0.45507 c -0.28256,-24.81876 2.56714,-41.60286 7.06641,-51.83593 4.49926,-10.23308 10.21568,-13.80037 16.55273,-13.46094 6.33706,0.33943 13.7924,5.04102 20.72852,12.96484 6.93612,7.92383 13.33434,18.94712 17.86328,31.3711 9.05788,24.84795 10.60126,55.15767 -4.82422,77.96679 -15.42548,22.80912 -48.00079,38.70713 -108.59179,34.25391 l -0.59961,3.7168 c 0,0 16.41301,4.14045 35.15039,7.17578 9.36868,1.51766 19.32269,2.76167 28.16015,3.07226 7.16841,0.25194 13.49569,-0.10514 18.42774,-1.55664 -1.25561,5.97169 -4.73069,10.42533 -9.5918,13.8086 -5.66096,3.93995 -12.99195,6.38961 -19.63281,7.875 -6.64087,1.48538 -12.55865,2.02121 -15.51563,2.29101 -0.73924,0.0675 -1.27501,0.11423 -1.6914,0.17188 -0.2082,0.0288 -0.1725,-0.10994 -0.88477,0.24414 -0.17807,0.0885 -0.53097,0.16962 -0.87695,0.8789 -0.17299,0.35464 -0.24271,0.91591 -0.11914,1.35157 0.12357,0.43566 0.3542,0.70286 0.52343,0.86328 0.67694,0.64167 0.78184,0.45857 0.92579,0.49414 0.57576,0.14229 0.8864,0.13839 1.64062,0.20312 0.75423,0.0647 1.79111,0.14245 3.16406,0.24805 l 0.0684,0.006 h 0.0684 c 3.87572,0.018 11.61975,1.08565 20.92188,1.65625 9.30213,0.5706 20.26898,0.63702 31.08984,-1.42383 10.82087,-2.06085 21.53253,-6.26845 30.13867,-14.30078 8.54175,-7.97223 14.89636,-19.71174 17.28516,-36.41016 0.11991,-0.28834 6.65614,-15.92954 17.97461,-23.33007 l 0.29101,-0.18946 0.20508,-0.28125 c 18.7789,-25.89868 32.68041,-57.10539 34.23242,-91.90429 1.5478,-34.7042 -9.25453,-72.91456 -39.45507,-112.718754 -0.0345,-0.13085 -0.0778,-0.308707 -0.12696,-0.576172 -0.10758,-0.58564 -0.22493,-1.504096 -0.22656,-2.757813 -0.003,-2.507433 0.45021,-6.360317 2.39258,-11.570312 3.88342,-10.416489 13.75121,-26.26957 37.81445,-47.261719 0,0 0.83055,-0.593113 1.37305,-1.7597656 0.27125,-0.5833264 0.50689,-1.5073708 0.11328,-2.4628906 C 340.206,5.4468239 339.32227,4.841676 338.39648,4.5234375 337.8408,4.3324207 337.5461,4.3195736 336.92188,4.234375 336.29765,4.1491764 335.48781,4.0601042 334.49805,3.9746094 332.51852,3.8036198 329.82347,3.647743 326.57227,3.5957031 Z M 326.51172,7.375 c 3.1646,0.050654 5.77937,0.2027744 7.66016,0.3652344 0.93957,0.08116 1.69713,0.164722 2.23632,0.2382812 -24.21678,21.1735034 -34.48809,37.4233684 -38.65039,48.5878904 -2.08864,5.60237 -2.63472,9.92407 -2.63086,12.896485 0.002,1.486207 0.14009,2.633274 0.28711,3.433593 0.0735,0.40016 0.14876,0.715001 0.20899,0.9375 0.006,0.0226 0.01,0.032 0.0156,0.05273 v 0.361328 l 0.38477,0.507812 c 29.94706,39.340596 40.42774,76.690446 38.91601,110.585936 -1.50806,33.8135 -15.0046,64.25282 -33.38867,89.66406 -12.63063,8.50545 -19.08984,24.89258 -19.08984,24.89258 l -0.0859,0.21484 -0.0332,0.23048 c -2.25114,16.21584 -8.25165,27.1055 -16.19532,34.51953 -7.94366,7.41403 -17.92264,11.37978 -28.26562,13.34961 -10.34298,1.96983 -21.01315,1.92377 -30.15039,1.36327 -3.88641,-0.23838 -5.80142,-0.40184 -8.99024,-0.70702 0.48672,-0.10091 0.86366,-0.12741 1.35938,-0.23828 6.91862,-1.54751 14.6621,-4.07626 20.96484,-8.46289 6.30275,-4.38663 11.17291,-10.80884 11.77539,-19.63281 l 0.22071,-3.23828 -2.92578,1.40624 c -3.98081,1.91379 -11.35024,2.63559 -19.93165,2.33399 -8.5814,-0.3016 -18.41457,-1.52519 -27.6875,-3.02734 -5.2525,-0.85087 -9.23337,-1.74131 -13.80468,-2.65039 47.96048,-0.39261 76.04783,-15.46718 90.37109,-36.64649 16.35581,-24.18476 14.59233,-55.73456 5.24414,-81.37891 -4.67409,-12.82217 -11.25142,-24.20335 -18.57031,-32.56445 -7.31889,-8.3611 -15.39777,-13.82488 -23.37109,-14.25195 -7.97333,-0.42707 -15.34493,4.63876 -20.21485,15.71484 -4.86992,11.07608 -7.6708,28.27714 -7.38476,53.40039 l 0.004,0.23242 0.0566,0.22266 c 0.20217,0.77499 0.15734,1.00668 0.15039,1.29297 -19.07202,-12.85724 -26.39352,-39.70667 -28.65429,-63.73047 -2.28396,-24.27014 0.46679,-45.29101 0.46679,-45.29101 l 0.19532,-1.48243 -1.39844,-0.53125 C 107.1441,88.170696 42.802892,125.92719 39.703125,127.77539 c -3.106499,-2.24679 -7.245721,-2.38714 -10.701172,-2.02148 -3.130581,0.33127 -5.354482,0.96412 -6.308594,1.25195 -0.557587,-0.30993 -1.530172,-0.90219 -2.546875,-2.03711 -1.378942,-1.53928 -2.390504,-3.40722 -1.234375,-6.49023 0.476492,-1.27065 2.5346,-4.14784 5.292969,-7.25 2.75837,-3.10217 6.218018,-6.59227 9.595703,-9.85352 6.75537,-6.522507 13.173828,-12.125 13.173828,-12.125 l 0.632813,-0.554688 0.01367,-0.841796 c 0,0 0.816285,-51.527762 42.310547,-67.355469 C 131.91444,4.4839899 202.07401,9.7740894 244.81055,36.023438 l 1.37109,0.841796 1.05078,-1.21875 C 261.6677,18.897709 283.57793,11.744634 302.29102,8.9648438 311.64756,7.5749484 320.18251,7.2736924 326.51172,7.375 Z"
         style="color:#000000;font-style:normal;font-variant:normal;font-weight:normal;font-stretch:normal;font-size:medium;line-height:normal;font-family:sans-serif;font-variant-ligatures:normal;font-variant-position:normal;font-variant-caps:normal;font-variant-numeric:normal;font-variant-alternates:normal;font-feature-settings:normal;text-indent:0;text-align:start;text-decoration:none;text-decoration-line:none;text-decoration-style:solid;text-decoration-color:#000000;letter-spacing:normal;word-spacing:normal;text-transform:none;writing-mode:lr-tb;direction:ltr;text-orientation:mixed;dominant-baseline:auto;baseline-shift:baseline;text-anchor:start;white-space:normal;shape-padding:0;clip-rule:nonzero;display:inline;overflow:visible;visibility:visible;isolation:auto;mix-blend-mode:normal;color-interpolation:sRGB;color-interpolation-filters:linearRGB;solid-color:#000000;solid-opacity:1;vector-effect:none;fill:#3859bd;fill-opacity:1;fill-rule:nonzero;stroke:none;stroke-width:3.77953005;stroke-linecap:butt;stroke-linejoin:miter;stroke-miterlimit:4;stroke-dasharray:none;stroke-dashoffset:0;stroke-opacity:1;color-rendering:auto;image-rendering:auto;shape-rendering:auto;text-rendering:auto;enable-background:accumulate"
         inkscape:connector-curvature="0" />
    </g>
    <path
       sodipodi:nodetypes="ccccc"
       id="path879"
       d="m 58.731732,156.68919 c 0,0 9.252621,-93.059782 72.072018,-116.380085 l 3.83355,11.284355 c -0.80118,1.218357 -51.571484,22.431046 -70.466463,107.13551 0,0 -4.814434,3.00328 -5.439105,-2.03978 z"
       style="display:inline;fill:#5c71dc;fill-opacity:1;stroke:none;stroke-width:0.97780401px;stroke-linecap:butt;stroke-linejoin:miter;stroke-opacity:1"
       inkscape:connector-curvature="0" />
    <path
       sodipodi:nodetypes="ccsc"
       id="path881"
       d="m 167.95061,-132.78831 c 0.14954,1.09013 1.17752,44.39931 18.81297,60.05558 0,0 -19.54555,4.796376 -20.59404,-17.505299 -1.04848,-22.301671 1.78107,-42.550281 1.78107,-42.550281 z"
       style="fill:#5c71dc;fill-opacity:1;stroke:none;stroke-width:1.03846002px;stroke-linecap:butt;stroke-linejoin:miter;stroke-opacity:1"
       inkscape:connector-curvature="0" />
    <path
       sodipodi:nodetypes="ccscsccccc"
       id="path883"
       d="M 305.07744,-10.656168 C 169.64306,-116.68474 18.261743,41.183494 23.124529,66.689685 c -3.238923,27.146071 29.236595,45.374735 29.236595,45.374735 -12.847931,42.49687 2.724767,55.17002 2.724767,55.17002 0,0 -8.976243,11.47278 -12.642788,-0.96657 -3.666538,-12.43933 -3.299643,-31.83608 -4.130317,-38.96325 -80.975452,-76.65775 50.667933,-174.501625 90.601924,-183.523815 -1.4702,-54.886955 41.63727,-90.043705 38.79047,-85.650905 -4.62718,7.02083 -42.10377,47.752787 -19.71984,79.050278 -10.78005,-2.97213 99.81424,-30.120188 165.10009,49.223753"
       style="fill:#a9c5f4;fill-opacity:1;stroke:none;stroke-width:1px;stroke-linecap:butt;stroke-linejoin:miter;stroke-opacity:1"
       inkscape:connector-curvature="0" />
    <path
       sodipodi:nodetypes="cccc"
       id="path885"
       d="m 206.80819,92.760645 -6.08947,7.044337 c 0,0 -60.85145,-25.27469 -65.27751,-61.437535 18.26353,-29.6088139 35.91464,39.429909 71.36698,54.393198 z"
       style="fill:#a9c5f4;fill-opacity:1;stroke:none;stroke-width:1px;stroke-linecap:butt;stroke-linejoin:miter;stroke-opacity:1"
       inkscape:connector-curvature="0" />
    <path
       sodipodi:nodetypes="ccscccccc"
       id="path887"
       d="m 214.57953,83.053327 c 0,0 -48.26455,-39.117955 -12.11369,-74.871487 0,0 5.64215,-2.9883557 3.58469,3.098776 -2.05746,6.087122 -1.6652,6.721593 -1.6652,6.721593 0,0 52.79163,-4.034811 59.43098,8.841951 l -5.10147,5.901425 c -2.59968,-1.249536 -45.87621,-13.863305 -58.6988,4.619309 0,0 -10.45196,19.020904 16.69814,43.219057 0,0 -0.32507,1.907446 -2.13465,2.469376 z"
       style="display:inline;fill:#5c71dc;fill-opacity:1;stroke:none;stroke-width:1px;stroke-linecap:butt;stroke-linejoin:miter;stroke-opacity:1"
       inkscape:connector-curvature="0" />
    <path
       sodipodi:nodetypes="ccc"
       id="path889"
       d="m 332.02007,142.72191 c 0.76537,3.15863 -33.48565,39.94036 -41.99605,41.8823 0,0 49.71103,-65.38563 41.99605,-41.8823 z"
       style="fill:#5c71dc;fill-opacity:1;stroke:none;stroke-width:1px;stroke-linecap:butt;stroke-linejoin:miter;stroke-opacity:1"
       inkscape:connector-curvature="0" />
    <path
       sodipodi:nodetypes="cccsc"
       id="path891"
       d="m 347.95501,165.97731 c 24.40776,-45.31569 11.00225,-63.93255 11.00225,-63.93255 -30.80907,-13.449106 -11.97838,-42.018073 -11.97838,-42.018073 -1.41065,1.307095 5.12659,26.130934 14.79869,39.554384 20.7642,28.817639 -12.12101,76.727389 -13.82256,66.396239 z"
       style="fill:#556ed2;fill-opacity:1;stroke:none;stroke-width:1px;stroke-linecap:butt;stroke-linejoin:miter;stroke-opacity:1"
       inkscape:connector-curvature="0" />
    <path
       sodipodi:nodetypes="ccsc"
       id="path893"
       d="m 52.381938,75.363522 c 0,0 -4.434863,4.692808 -1.674239,7.079219 -1.153955,1.177632 -7.937445,2.262487 -6.325461,-4.398183 1.42768,-5.899126 7.9997,-2.681036 7.9997,-2.681036 z"
       style="fill:#5c71dc;fill-opacity:1;stroke:none;stroke-width:1.11503994px;stroke-linecap:butt;stroke-linejoin:miter;stroke-opacity:1"
       inkscape:connector-curvature="0" />
  </g>
</svg>
