<?xml version="1.0" encoding="UTF-8" standalone="no"?>
<!-- Created with Inkscape (http://www.inkscape.org/) -->

<svg
   xmlns:dc="http://purl.org/dc/elements/1.1/"
   xmlns:cc="http://creativecommons.org/ns#"
   xmlns:rdf="http://www.w3.org/1999/02/22-rdf-syntax-ns#"
   xmlns:svg="http://www.w3.org/2000/svg"
   xmlns="http://www.w3.org/2000/svg"
   xmlns:sodipodi="http://sodipodi.sourceforge.net/DTD/sodipodi-0.dtd"
   xmlns:inkscape="http://www.inkscape.org/namespaces/inkscape"
   version="1.0"
   width="19.749844"
   height="9.4488182"
   viewBox="-108.198 0 37.604148 15.924975"
   id="Layer_1"
   xml:space="preserve"
   sodipodi:docname="msx_joystick.svg"
   inkscape:version="0.92.5 (2060ec1f9f, 2020-04-08)"
   inkscape:export-filename="/home/albert/Documents/02-PROJECTS/msx-joydolphin/msx-joydolphin-v1/images/msx_joystick.png"
   inkscape:export-xdpi="2488.73"
   inkscape:export-ydpi="2488.73"><metadata
   id="metadata35"><rdf:RDF><cc:Work
       rdf:about=""><dc:format>image/svg+xml</dc:format><dc:type
         rdf:resource="http://purl.org/dc/dcmitype/StillImage" /><dc:title /></cc:Work></rdf:RDF></metadata><sodipodi:namedview
   pagecolor="#ffffff"
   bordercolor="#666666"
   borderopacity="1"
   objecttolerance="10"
   gridtolerance="10"
   guidetolerance="10"
   inkscape:pageopacity="0"
   inkscape:pageshadow="2"
   inkscape:window-width="2488"
   inkscape:window-height="1376"
   id="namedview33"
   showgrid="false"
   inkscape:zoom="118.63384"
   inkscape:cx="10.645289"
   inkscape:cy="5.7022075"
   inkscape:window-x="72"
   inkscape:window-y="27"
   inkscape:window-maximized="1"
   inkscape:current-layer="Layer_1"
   fit-margin-top="0"
   fit-margin-left="0"
   fit-margin-right="0"
   fit-margin-bottom="0" /><defs
   id="defs4081">
	
	
	
	
	
	
	
	
	
</defs>




<path
   d="m -103.19512,-0.76435721 c -3.09633,0 -5.18896,2.36115001 -4.65045,5.24840001 l 1.29932,6.9544802 c 0.53936,2.88706 3.51413,5.25081 6.610251,5.25081 h 21.080334 c 3.095691,0 6.070252,-2.36375 6.610247,-5.25081 l 1.299098,-6.9544802 c 0.538515,-2.88725 -1.553051,-5.24840001 -4.650443,-5.24840001 z"
   id="path4052"
   style="fill:none;stroke:#000000;stroke-width:0.53707385"
   inkscape:connector-curvature="0" /><g
   id="g3624"
   transform="matrix(0.12881381,0,0,0.12881381,-96.915747,-1.5110775)"><circle
     cx="3.0239999"
     cy="60.5"
     r="5.8189998"
     transform="matrix(1.64978,0,0,1.56185,-41.1174,-43.5434)"
     id="circle4062"
     style="fill:#000000;fill-opacity:1;stroke:#000000;stroke-width:2.59739995" /><circle
     cx="31.67"
     cy="60.5"
     r="5.8189998"
     transform="matrix(1.64978,0,0,1.56185,-41.1174,-43.5434)"
     id="circle4064"
     style="fill:#000000;fill-opacity:1;stroke:#000000;stroke-width:2.59739995" /><circle
     cx="60.310001"
     cy="60.5"
     r="5.8150001"
     transform="matrix(1.64978,0,0,1.56185,-41.1174,-43.5434)"
     id="circle4066"
     style="fill:#000000;fill-opacity:1;stroke:#000000;stroke-width:2.59739995" /><path
     d="m 105.62228,41.861682 c 5.3024,0 9.59842,4.070181 9.59842,9.089967 0,5.018224 -4.29602,9.085281 -9.59842,9.085281 -5.29414,0 -9.595118,-4.067057 -9.595118,-9.085281 0,-5.019786 4.300978,-9.089967 9.595118,-9.089967 z"
     id="path4068"
     style="fill:#000000;fill-opacity:1;stroke:#000000;stroke-width:4.16938019"
     inkscape:connector-curvature="0" /><circle
     cx="117.588"
     cy="60.5"
     r="5.8189998"
     transform="matrix(1.64978,0,0,1.56185,-41.1174,-43.5434)"
     id="circle4070"
     style="fill:#000000;fill-opacity:1;stroke:#000000;stroke-width:2.59739995" /><circle
     cx="17.348"
     cy="89.436996"
     r="5.8169999"
     transform="matrix(1.64978,0,0,1.56185,-41.1174,-43.5434)"
     id="circle4072"
     style="fill:#000000;fill-opacity:1;stroke:#000000;stroke-width:2.59739995" /><circle
     cx="45.990002"
     cy="89.436996"
     r="5.8169999"
     transform="matrix(1.64978,0,0,1.56185,-41.1174,-43.5434)"
     id="circle4074"
     style="fill:#000000;fill-opacity:1;stroke:#000000;stroke-width:2.59739995" /><circle
     cx="74.624001"
     cy="89.436996"
     r="5.8169999"
     transform="matrix(1.64978,0,0,1.56185,-41.1174,-43.5434)"
     id="circle4076"
     style="fill:#000000;fill-opacity:1;stroke:#000000;stroke-width:2.59739995" /><path
     d="m 129.25703,87.056935 c 5.29744,0 9.58852,4.067058 9.58852,9.082158 0,5.016667 -4.29108,9.083717 -9.58852,9.083717 -5.30569,0 -9.59512,-4.06705 -9.59512,-9.083717 0,-5.013539 4.29108,-9.082158 9.59512,-9.082158 z"
     id="path4078"
     style="fill:#000000;fill-opacity:1;stroke:#000000;stroke-width:4.16938019"
     inkscape:connector-curvature="0" /></g><g
   aria-label="5"
   transform="matrix(1.027761,0,0,0.97298887,0.39057439,8.8862235)"
   style="font-style:normal;font-variant:normal;font-weight:normal;font-stretch:normal;font-size:2.48127127px;font-family:'Bitstream Vera Sans';-inkscape-font-specification:'Bitstream Vera Sans, Normal';font-variant-ligatures:normal;font-variant-caps:normal;font-variant-numeric:normal;font-feature-settings:normal;text-align:start;writing-mode:lr-tb;text-anchor:start;fill:#000000;fill-opacity:1;stroke:none;stroke-width:0.12881371"
   id="text1365"><path
     d="m -99.550269,-7.6916647 h 0.960765 v 0.2059649 h -0.736627 v 0.4434304 q 0.05331,-0.018173 0.106617,-0.026654 0.05331,-0.00969 0.106617,-0.00969 0.30289,0 0.479777,0.1659835 0.176888,0.1659835 0.176888,0.4494881 0,0.2919855 -0.181734,0.4543343 -0.181734,0.1611373 -0.512489,0.1611373 -0.113887,0 -0.232619,-0.019385 -0.117521,-0.019385 -0.243523,-0.058155 v -0.2459464 q 0.10904,0.059366 0.225349,0.088444 0.11631,0.029077 0.245947,0.029077 0.209599,0 0.331967,-0.1102518 0.122367,-0.1102518 0.122367,-0.2992549 0,-0.1890031 -0.122367,-0.2992549 -0.122368,-0.1102518 -0.331967,-0.1102518 -0.09814,0 -0.196273,0.021808 -0.09692,0.021808 -0.198695,0.067847 z"
     id="path850"
     inkscape:connector-curvature="0" /></g>









<g
   aria-label="1"
   transform="matrix(1.027761,0,0,0.97298887,-0.01750567,8.9868748)"
   style="font-style:normal;font-variant:normal;font-weight:normal;font-stretch:normal;font-size:2.48127127px;font-family:'Bitstream Vera Sans';-inkscape-font-specification:'Bitstream Vera Sans, Normal';font-variant-ligatures:normal;font-variant-caps:normal;font-variant-numeric:normal;font-feature-settings:normal;text-align:start;writing-mode:lr-tb;text-anchor:start;fill:#000000;fill-opacity:1;stroke:none;stroke-width:0.12881371"
   id="text1381"><path
     d="m -75.733585,-6.1746496 h 0.399814 v -1.3799648 l -0.434949,0.087232 v -0.2229267 l 0.432526,-0.087232 h 0.244735 v 1.6028915 h 0.399814 v 0.2059649 h -1.04194 z"
     id="path853"
     inkscape:connector-curvature="0" /></g>



<g
   aria-label="9"
   transform="matrix(1.027761,0,0,0.97298887,0.08311798,8.4672144)"
   style="font-style:normal;font-variant:normal;font-weight:normal;font-stretch:normal;font-size:2.48127127px;font-family:'Bitstream Vera Sans';-inkscape-font-specification:'Bitstream Vera Sans, Normal';font-variant-ligatures:normal;font-variant-caps:normal;font-variant-numeric:normal;font-feature-settings:normal;text-align:start;writing-mode:lr-tb;text-anchor:start;fill:#000000;fill-opacity:1;stroke:none;stroke-width:0.12881371"
   id="text1385"><path
     d="M -96.498151,6.2260568 V 6.0031301 q 0.09208,0.043616 0.18658,0.066636 0.0945,0.02302 0.185368,0.02302 0.242312,0 0.369525,-0.1623488 0.128425,-0.1635603 0.146599,-0.4955273 -0.07027,0.104194 -0.178099,0.1599257 -0.107829,0.055732 -0.238677,0.055732 -0.271389,0 -0.430103,-0.1635604 -0.157503,-0.1647719 -0.157503,-0.4494881 0,-0.2786584 0.164772,-0.447065 0.164772,-0.1684066 0.438584,-0.1684066 0.313794,0 0.478566,0.2411001 0.165983,0.2398885 0.165983,0.6978575 0,0.4276801 -0.203542,0.6833189 -0.20233,0.2544272 -0.545201,0.2544272 -0.09208,0 -0.18658,-0.018173 -0.0945,-0.018173 -0.196272,-0.05452 z m 0.487046,-0.7669163 q 0.164772,0 0.260485,-0.112675 0.09692,-0.1126749 0.09692,-0.3089473 0,-0.1950609 -0.09692,-0.3077358 -0.09571,-0.1138865 -0.260485,-0.1138865 -0.164772,0 -0.261697,0.1138865 -0.09571,0.1126749 -0.09571,0.3077358 0,0.1962724 0.09571,0.3089473 0.09692,0.112675 0.261697,0.112675 z"
     id="path856"
     inkscape:connector-curvature="0" /></g>







<g
   aria-label="6"
   transform="matrix(1.027761,0,0,0.97298887,-0.03916213,8.4672159)"
   style="font-style:normal;font-variant:normal;font-weight:normal;font-stretch:normal;font-size:2.48127127px;font-family:'Bitstream Vera Sans';-inkscape-font-specification:'Bitstream Vera Sans, Normal';font-variant-ligatures:normal;font-variant-caps:normal;font-variant-numeric:normal;font-feature-settings:normal;text-align:start;writing-mode:lr-tb;text-anchor:start;fill:#000000;fill-opacity:1;stroke:none;stroke-width:0.12881371"
   id="text1397"><path
     d="m -77.952769,5.2616565 q -0.164771,0 -0.261696,0.1126749 -0.09571,0.1126749 -0.09571,0.3089473 0,0.1950609 0.09571,0.3089474 0.09692,0.1126749 0.261696,0.1126749 0.164772,0 0.260485,-0.1126749 0.09692,-0.1138865 0.09692,-0.3089474 0,-0.1962724 -0.09692,-0.3089473 -0.09571,-0.1126749 -0.260485,-0.1126749 z m 0.485835,-0.7669164 v 0.2229267 q -0.09208,-0.043616 -0.18658,-0.066636 -0.09329,-0.02302 -0.185368,-0.02302 -0.242312,0 -0.370737,0.1635604 -0.127214,0.1635603 -0.145387,0.4943157 0.07148,-0.1054055 0.179311,-0.1611372 0.107828,-0.056943 0.237465,-0.056943 0.272601,0 0.430103,0.1659834 0.158714,0.164772 0.158714,0.4494881 0,0.2786584 -0.164771,0.447065 -0.164772,0.1684066 -0.438585,0.1684066 -0.313793,0 -0.479777,-0.2398885 -0.165983,-0.2411001 -0.165983,-0.6978576 0,-0.4288916 0.203542,-0.6833188 0.203541,-0.2556388 0.546412,-0.2556388 0.09208,0 0.185369,0.018173 0.0945,0.018173 0.196272,0.05452 z"
     id="path859"
     inkscape:connector-curvature="0" /></g>



</svg>