<svg xmlns="http://www.w3.org/2000/svg" xmlns:xlink="http://www.w3.org/1999/xlink" version="1.1" x="0px" y="0px" viewBox="0 0 90 90" enable-background="new 0 0 90 90" xml:space="preserve"><polygon fill="#000000" points="210.055,395.395 207.448,434.809 232.893,436.492 232.959,435.493 235.5,397.077 "></polygon><polygon fill="#000000" points="218.416,395.842 203.876,432.568 227.585,441.955 227.954,441.025 242.125,405.229 "></polygon><polygon fill="#000000" points="212.896,394.438 206.7,433.449 231.883,437.449 232.04,436.461 238.08,398.438 "></polygon><rect x="207.559" y="397.729" fill="#000000" stroke="#1D1D1B" stroke-width="2" stroke-miterlimit="10" width="23.5" height="37.5"></rect><line fill="#000000" stroke="#1D1D1B" stroke-miterlimit="10" x1="217.001" y1="432.031" x2="217.001" y2="420.513"></line><line fill="#000000" stroke="#1D1D1B" stroke-miterlimit="10" x1="223.001" y1="432.031" x2="223.001" y2="401.644"></line><line fill="#000000" stroke="#1D1D1B" stroke-miterlimit="10" x1="225.876" y1="432.031" x2="225.876" y2="401.644"></line><polygon fill="#000000" points="210.275,428.322 212.417,427.085 214.559,428.322 214.559,430.795 212.417,432.031 210.275,430.795   "></polygon><text transform="matrix(0 -1 1 0 213.5005 430.2695)" fill="#000000" font-family="'Futura-CondensedMedium'" font-size="3.4893">A</text><path d="M67.516,34.45c-0.664-1.239-1.64-2.335-2.905-3.154c-0.245-0.157-0.495-0.301-0.749-0.432  c0.141-0.876-0.855-1.964-2.348-2.509c-1.442-0.527-2.852-0.37-3.359,0.323c-8.523-2.785-17.764-2.785-26.285,0  c-0.509-0.693-1.918-0.851-3.36-0.323c-1.51,0.551-2.512,1.656-2.345,2.536c-0.234,0.124-0.469,0.258-0.696,0.404  c-0.803,0.521-1.488,1.153-2.054,1.86c-1.942,1.919-3.355,7.818-3.355,14.797c0,8.536,2.114,15.457,4.723,15.457  c2.606,0,4.719-6.915,4.722-15.445c0.042,0.048,0.083,0.095,0.117,0.144c0.898,1.289,1.096,2.63,2.112,4.365  c1.677,2.864,5.359,3.827,8.224,2.15c2.864-1.678,3.827-5.36,2.15-8.224c-1.015-1.733-2.096-1.872-2.936-3.432  c3.858-0.868,7.872-0.864,11.729,0.011c-0.841,1.55-1.917,1.689-2.93,3.421c-1.678,2.863-0.714,6.546,2.149,8.224  c2.865,1.677,6.547,0.714,8.225-2.15c1.016-1.735,1.214-3.076,2.111-4.365c0.012-0.015,0.027-0.032,0.04-0.049  c0.017,8.486,2.124,15.351,4.723,15.351c2.608,0,4.722-6.921,4.722-15.457C69.94,42.149,68.961,37.094,67.516,34.45z M30.051,42.255  c-2.069,0-3.747-1.677-3.747-3.746s1.678-3.747,3.747-3.747s3.747,1.678,3.747,3.747S32.12,42.255,30.051,42.255z M40.411,48.37  v2.198h-2.263v2.262h-2.199v-2.262h-2.263V48.37h2.263v-2.264h2.199v2.264H40.411z M45.011,40.17c-0.704,0-1.274-0.57-1.274-1.272  c0-0.703,0.571-1.272,1.274-1.272c0.703,0,1.272,0.569,1.272,1.272C46.283,39.6,45.714,40.17,45.011,40.17z M54.511,39.462  c0.967,0,1.75,0.785,1.75,1.753c0,0.966-0.783,1.75-1.75,1.75s-1.751-0.784-1.751-1.75C52.759,40.247,53.543,39.462,54.511,39.462z   M52.948,53.462c-2.032,0-3.679-1.648-3.679-3.682c0-2.03,1.647-3.678,3.679-3.678c2.033,0,3.68,1.647,3.68,3.678  C56.628,51.813,54.981,53.462,52.948,53.462z M55.887,34.58l-0.016-0.022c-0.384-0.559-0.204-1.485,0.487-1.886  c0.996-0.577,2.107-0.867,3.259-0.853c0.798,0.01,1.409,0.732,1.347,1.406v0.027c-0.062,0.678-0.573,1.106-1.133,1.103  c-0.853-0.01-1.678,0.207-2.417,0.633C56.925,35.265,56.269,35.143,55.887,34.58z M59.923,41.215c-1.495,0-2.707-1.213-2.707-2.706  c0-1.494,1.212-2.706,2.707-2.706c1.494,0,2.705,1.212,2.705,2.706C62.627,40.002,61.417,41.215,59.923,41.215z M66.766,38.901  c-0.075,0.795-0.84,1.346-1.507,1.23l-0.029-0.004c-0.67-0.114-1.056-0.659-1.008-1.218c0.08-0.849-0.069-1.688-0.436-2.46  c-0.237-0.508-0.061-1.151,0.529-1.488l0.025-0.013c0.586-0.339,1.496-0.084,1.84,0.636C66.674,36.623,66.874,37.755,66.766,38.901z  "></path></svg>