<?xml version="1.0" encoding="UTF-8" standalone="no"?>
<svg
   xmlns:dc="http://purl.org/dc/elements/1.1/"
   xmlns:cc="http://creativecommons.org/ns#"
   xmlns:rdf="http://www.w3.org/1999/02/22-rdf-syntax-ns#"
   xmlns:svg="http://www.w3.org/2000/svg"
   xmlns="http://www.w3.org/2000/svg"
   xmlns:sodipodi="http://sodipodi.sourceforge.net/DTD/sodipodi-0.dtd"
   xmlns:inkscape="http://www.inkscape.org/namespaces/inkscape"
   version="1.1"
   x="0px"
   y="0px"
   viewBox="0 0 37.79528 27.899372"
   enable-background="new 0 0 90 90"
   xml:space="preserve"
   id="svg22"
   sodipodi:docname="Video_Game_Controller_(56427)_-_The_Noun_Project-10mm.svg"
   width="37.79528"
   height="27.899372"
   inkscape:version="0.92.5 (2060ec1f9f, 2020-04-08)"><metadata
     id="metadata28"><rdf:RDF><cc:Work
         rdf:about=""><dc:format>image/svg+xml</dc:format><dc:type
           rdf:resource="http://purl.org/dc/dcmitype/StillImage" /><dc:title></dc:title></cc:Work></rdf:RDF></metadata><defs
     id="defs26" /><sodipodi:namedview
     pagecolor="#ffffff"
     bordercolor="#666666"
     borderopacity="1"
     objecttolerance="10"
     gridtolerance="10"
     guidetolerance="10"
     inkscape:pageopacity="0"
     inkscape:pageshadow="2"
     inkscape:window-width="2488"
     inkscape:window-height="1376"
     id="namedview24"
     showgrid="false"
     fit-margin-top="0"
     fit-margin-left="0"
     fit-margin-right="0"
     fit-margin-bottom="0"
     inkscape:zoom="31.558293"
     inkscape:cx="19.220926"
     inkscape:cy="19.551084"
     inkscape:window-x="72"
     inkscape:window-y="27"
     inkscape:window-maximized="1"
     inkscape:current-layer="svg22" /><path
     d="m 35.957833,5.9561605 c -0.503119,-0.938802 -1.242643,-1.769251 -2.201145,-2.389814 -0.185638,-0.11896 -0.375065,-0.22807 -0.567523,-0.32733 0.106837,-0.663753 -0.647842,-1.488141 -1.779101,-1.901092 -1.092616,-0.39931253 -2.160986,-0.2803523 -2.545144,0.24474 -6.457953,-2.11021933 -13.459941,-2.11021933 -19.9163783,0 C 8.5628682,1.0575722 7.495256,0.93785417 6.4026401,1.3379245 5.2584997,1.7554225 4.4992754,2.5926905 4.6258127,3.2594745 4.4485089,3.3534305 4.2704473,3.4549635 4.0984474,3.5655885 3.4900071,3.9603545 2.9709765,4.4392265 2.5421133,4.9749275 1.0706427,6.4289705 0,10.898695 0,16.186745 c 0,6.467803 1.6017966,11.711906 3.5786591,11.711906 1.9745893,0 3.5756283,-5.239556 3.5779011,-11.702813 0.031821,0.03637 0.062893,0.07198 0.088652,0.10911 0.6804229,0.976686 0.8304486,1.992774 1.6002815,3.307399 1.2706773,2.170078 4.0605613,2.899752 6.2313973,1.629074 2.170079,-1.271435 2.899752,-4.06132 1.629075,-6.231398 -0.769075,-1.313109 -1.588158,-1.418431 -2.224634,-2.600457 2.923241,-0.657691 5.964684,-0.65466 8.887167,0.0083 -0.637233,1.174449 -1.452528,1.27977 -2.220086,2.592122 -1.271436,2.16932 -0.541004,4.959963 1.628316,6.231398 2.170836,1.270678 4.96072,0.541004 6.232156,-1.629075 0.769832,-1.314624 0.919858,-2.330712 1.599523,-3.307398 0.0091,-0.01136 0.02046,-0.02425 0.03031,-0.03713 0.01288,6.429917 1.609374,11.631589 3.578659,11.631589 1.976105,0 3.577902,-5.244103 3.577902,-11.711906 C 37.794493,11.789724 37.052724,7.9595055 35.957834,5.9561235 Z M 7.5702695,11.870078 c -1.5676997,0 -2.8391352,-1.270678 -2.8391352,-2.8383775 0,-1.5677 1.2714355,-2.839135 2.8391352,-2.839135 1.5676994,0 2.8391355,1.271435 2.8391355,2.839135 0,1.5676995 -1.2714361,2.8383775 -2.8391355,2.8383775 z m 7.8498635,4.633389 v 1.665445 h -1.714695 v 1.713937 h -1.666202 v -1.713937 h -1.714695 v -1.665445 h 1.714695 v -1.715453 h 1.666202 v 1.715453 z m 3.485461,-6.213212 c -0.533427,0 -0.965321,-0.4318935 -0.965321,-0.9638055 0,-0.532669 0.432652,-0.963806 0.965321,-0.963806 0.53267,0 0.963806,0.431137 0.963806,0.963806 0,0.531912 -0.431136,0.9638055 -0.963806,0.9638055 z m 7.198235,-0.5364575 c 0.732704,0 1.325991,0.5948005 1.325991,1.3282635 0,0.731946 -0.593287,1.32599 -1.325991,1.32599 -0.732705,0 -1.326748,-0.594044 -1.326748,-1.32599 -7.86e-4,-0.733463 0.593286,-1.3282635 1.326748,-1.3282635 z M 24.91953,20.361721 c -1.539665,0 -2.787611,-1.248704 -2.787611,-2.789884 0,-1.538149 1.247946,-2.786853 2.787611,-2.786853 1.540422,0 2.788369,1.247946 2.788369,2.786853 0,1.540422 -1.247947,2.789884 -2.788369,2.789884 z m 2.226906,-14.3070585 -0.01212,-0.01667 c -0.290961,-0.42356 -0.154573,-1.125198 0.369004,-1.429039 0.754678,-0.437198 1.596492,-0.656934 2.469373,-0.646326 0.604651,0.0076 1.067612,0.554643 1.020633,1.065339 v 0.02046 c -0.04698,0.513727 -0.434167,0.838026 -0.858483,0.835753 -0.646326,-0.0076 -1.271436,0.156846 -1.831383,0.47963 -0.370519,0.209885 -0.867577,0.117445 -1.157022,-0.309145 z m 3.058114,5.0273985 c -1.132775,0 -2.051118,-0.919102 -2.051118,-2.0503605 0,-1.132017 0.918343,-2.05036 2.051118,-2.05036 1.132016,0 2.049602,0.918343 2.049602,2.05036 -7.86e-4,1.1312585 -0.917586,2.0503605 -2.049602,2.0503605 z m 5.185001,-1.7533385 c -0.05683,0.602379 -0.636476,1.0198755 -1.141867,0.9319815 l -0.02197,-0.003 c -0.507668,-0.08641 -0.800143,-0.4993605 -0.763773,-0.9229205 0.06062,-0.643294 -0.05228,-1.279012 -0.330361,-1.863963 -0.179577,-0.384916 -0.04622,-0.872123 0.400828,-1.127471 l 0.01894,-0.0099 c 0.444017,-0.256863 1.133532,-0.06365 1.394184,0.481903 0.374308,0.787259 0.52585,1.644986 0.444017,2.51332 z"
     id="path20"
     inkscape:connector-curvature="0"
     style="stroke-width:0.75770891" /></svg>