%TF.GenerationSoftware,KiCad,Pcbnew,7.0.7-7.0.7~ubuntu20.04.1*%
%TF.CreationDate,2023-10-03T21:57:15+02:00*%
%TF.ProjectId,msx-joydolphin-v1,6d73782d-6a6f-4796-946f-6c7068696e2d,v1*%
%TF.SameCoordinates,Original*%
%TF.FileFunction,Drillmap*%
%TF.FilePolarity,Positive*%
%FSLAX45Y45*%
G04 Gerber Fmt 4.5, Leading zero omitted, Abs format (unit mm)*
G04 Created by KiCad (PCBNEW 7.0.7-7.0.7~ubuntu20.04.1) date 2023-10-03 21:57:15*
%MOMM*%
%LPD*%
G01*
G04 APERTURE LIST*
%ADD10C,0.100000*%
%ADD11C,0.200000*%
G04 APERTURE END LIST*
D10*
X4150000Y-3650000D02*
X9750000Y-3650000D01*
X9750000Y-6850000D01*
X4150000Y-6850000D01*
X4150000Y-3650000D01*
D11*
X4405777Y-7166484D02*
X4405777Y-6966484D01*
X4405777Y-6966484D02*
X4453396Y-6966484D01*
X4453396Y-6966484D02*
X4481967Y-6976008D01*
X4481967Y-6976008D02*
X4501015Y-6995055D01*
X4501015Y-6995055D02*
X4510539Y-7014103D01*
X4510539Y-7014103D02*
X4520063Y-7052198D01*
X4520063Y-7052198D02*
X4520063Y-7080769D01*
X4520063Y-7080769D02*
X4510539Y-7118865D01*
X4510539Y-7118865D02*
X4501015Y-7137912D01*
X4501015Y-7137912D02*
X4481967Y-7156960D01*
X4481967Y-7156960D02*
X4453396Y-7166484D01*
X4453396Y-7166484D02*
X4405777Y-7166484D01*
X4605777Y-7166484D02*
X4605777Y-7033150D01*
X4605777Y-7071246D02*
X4615301Y-7052198D01*
X4615301Y-7052198D02*
X4624824Y-7042674D01*
X4624824Y-7042674D02*
X4643872Y-7033150D01*
X4643872Y-7033150D02*
X4662920Y-7033150D01*
X4729586Y-7166484D02*
X4729586Y-7033150D01*
X4729586Y-6966484D02*
X4720063Y-6976008D01*
X4720063Y-6976008D02*
X4729586Y-6985531D01*
X4729586Y-6985531D02*
X4739110Y-6976008D01*
X4739110Y-6976008D02*
X4729586Y-6966484D01*
X4729586Y-6966484D02*
X4729586Y-6985531D01*
X4853396Y-7166484D02*
X4834348Y-7156960D01*
X4834348Y-7156960D02*
X4824824Y-7137912D01*
X4824824Y-7137912D02*
X4824824Y-6966484D01*
X4958158Y-7166484D02*
X4939110Y-7156960D01*
X4939110Y-7156960D02*
X4929586Y-7137912D01*
X4929586Y-7137912D02*
X4929586Y-6966484D01*
X5186729Y-7166484D02*
X5186729Y-6966484D01*
X5186729Y-6966484D02*
X5253396Y-7109341D01*
X5253396Y-7109341D02*
X5320063Y-6966484D01*
X5320063Y-6966484D02*
X5320063Y-7166484D01*
X5501015Y-7166484D02*
X5501015Y-7061722D01*
X5501015Y-7061722D02*
X5491491Y-7042674D01*
X5491491Y-7042674D02*
X5472444Y-7033150D01*
X5472444Y-7033150D02*
X5434348Y-7033150D01*
X5434348Y-7033150D02*
X5415301Y-7042674D01*
X5501015Y-7156960D02*
X5481967Y-7166484D01*
X5481967Y-7166484D02*
X5434348Y-7166484D01*
X5434348Y-7166484D02*
X5415301Y-7156960D01*
X5415301Y-7156960D02*
X5405777Y-7137912D01*
X5405777Y-7137912D02*
X5405777Y-7118865D01*
X5405777Y-7118865D02*
X5415301Y-7099817D01*
X5415301Y-7099817D02*
X5434348Y-7090293D01*
X5434348Y-7090293D02*
X5481967Y-7090293D01*
X5481967Y-7090293D02*
X5501015Y-7080769D01*
X5596253Y-7033150D02*
X5596253Y-7233150D01*
X5596253Y-7042674D02*
X5615301Y-7033150D01*
X5615301Y-7033150D02*
X5653396Y-7033150D01*
X5653396Y-7033150D02*
X5672443Y-7042674D01*
X5672443Y-7042674D02*
X5681967Y-7052198D01*
X5681967Y-7052198D02*
X5691491Y-7071246D01*
X5691491Y-7071246D02*
X5691491Y-7128388D01*
X5691491Y-7128388D02*
X5681967Y-7147436D01*
X5681967Y-7147436D02*
X5672443Y-7156960D01*
X5672443Y-7156960D02*
X5653396Y-7166484D01*
X5653396Y-7166484D02*
X5615301Y-7166484D01*
X5615301Y-7166484D02*
X5596253Y-7156960D01*
X5777205Y-7147436D02*
X5786729Y-7156960D01*
X5786729Y-7156960D02*
X5777205Y-7166484D01*
X5777205Y-7166484D02*
X5767682Y-7156960D01*
X5767682Y-7156960D02*
X5777205Y-7147436D01*
X5777205Y-7147436D02*
X5777205Y-7166484D01*
X5777205Y-7042674D02*
X5786729Y-7052198D01*
X5786729Y-7052198D02*
X5777205Y-7061722D01*
X5777205Y-7061722D02*
X5767682Y-7052198D01*
X5767682Y-7052198D02*
X5777205Y-7042674D01*
X5777205Y-7042674D02*
X5777205Y-7061722D01*
M02*
