G04 #@! TF.GenerationSoftware,KiCad,Pcbnew,7.0.7-7.0.7~ubuntu20.04.1*
G04 #@! TF.CreationDate,2023-10-03T21:57:06+02:00*
G04 #@! TF.ProjectId,msx-joydolphin-v1,6d73782d-6a6f-4796-946f-6c7068696e2d,v1*
G04 #@! TF.SameCoordinates,Original*
G04 #@! TF.FileFunction,Copper,L1,Top*
G04 #@! TF.FilePolarity,Positive*
%FSLAX46Y46*%
G04 Gerber Fmt 4.6, Leading zero omitted, Abs format (unit mm)*
G04 Created by KiCad (PCBNEW 7.0.7-7.0.7~ubuntu20.04.1) date 2023-10-03 21:57:06*
%MOMM*%
%LPD*%
G01*
G04 APERTURE LIST*
G04 Aperture macros list*
%AMRoundRect*
0 Rectangle with rounded corners*
0 $1 Rounding radius*
0 $2 $3 $4 $5 $6 $7 $8 $9 X,Y pos of 4 corners*
0 Add a 4 corners polygon primitive as box body*
4,1,4,$2,$3,$4,$5,$6,$7,$8,$9,$2,$3,0*
0 Add four circle primitives for the rounded corners*
1,1,$1+$1,$2,$3*
1,1,$1+$1,$4,$5*
1,1,$1+$1,$6,$7*
1,1,$1+$1,$8,$9*
0 Add four rect primitives between the rounded corners*
20,1,$1+$1,$2,$3,$4,$5,0*
20,1,$1+$1,$4,$5,$6,$7,0*
20,1,$1+$1,$6,$7,$8,$9,0*
20,1,$1+$1,$8,$9,$2,$3,0*%
G04 Aperture macros list end*
G04 #@! TA.AperFunction,ComponentPad*
%ADD10RoundRect,0.250000X0.350000X0.625000X-0.350000X0.625000X-0.350000X-0.625000X0.350000X-0.625000X0*%
G04 #@! TD*
G04 #@! TA.AperFunction,ComponentPad*
%ADD11O,1.200000X1.750000*%
G04 #@! TD*
G04 #@! TA.AperFunction,ComponentPad*
%ADD12R,2.200000X2.200000*%
G04 #@! TD*
G04 #@! TA.AperFunction,ComponentPad*
%ADD13O,2.200000X2.200000*%
G04 #@! TD*
G04 #@! TA.AperFunction,ComponentPad*
%ADD14R,1.600000X1.600000*%
G04 #@! TD*
G04 #@! TA.AperFunction,ComponentPad*
%ADD15O,1.600000X1.600000*%
G04 #@! TD*
G04 #@! TA.AperFunction,ComponentPad*
%ADD16C,4.064000*%
G04 #@! TD*
G04 #@! TA.AperFunction,ComponentPad*
%ADD17C,2.000000*%
G04 #@! TD*
G04 #@! TA.AperFunction,ComponentPad*
%ADD18R,1.524000X1.524000*%
G04 #@! TD*
G04 #@! TA.AperFunction,ComponentPad*
%ADD19C,1.524000*%
G04 #@! TD*
G04 #@! TA.AperFunction,Conductor*
%ADD20C,0.250000*%
G04 #@! TD*
G04 #@! TA.AperFunction,Conductor*
%ADD21C,0.500000*%
G04 #@! TD*
G04 APERTURE END LIST*
D10*
X66750000Y-60500000D03*
D11*
X64750000Y-60500000D03*
X62750000Y-60500000D03*
X60750000Y-60500000D03*
X58750000Y-60500000D03*
D12*
X63340000Y-65000000D03*
D13*
X73500000Y-65000000D03*
D14*
X51760000Y-55240000D03*
D15*
X54300000Y-55240000D03*
X56840000Y-55240000D03*
X59380000Y-55240000D03*
X61920000Y-55240000D03*
X64460000Y-55240000D03*
X67000000Y-55240000D03*
X69540000Y-55240000D03*
X72080000Y-55240000D03*
X74620000Y-55240000D03*
X77160000Y-55240000D03*
X79700000Y-55240000D03*
X82240000Y-55240000D03*
X84780000Y-55240000D03*
X87320000Y-55240000D03*
X87320000Y-40000000D03*
X84780000Y-40000000D03*
X82240000Y-40000000D03*
X79700000Y-40000000D03*
X77160000Y-40000000D03*
X74620000Y-40000000D03*
X72080000Y-40000000D03*
X69540000Y-40000000D03*
X67000000Y-40000000D03*
X64460000Y-40000000D03*
X61920000Y-40000000D03*
X59380000Y-40000000D03*
X56840000Y-40000000D03*
X54300000Y-40000000D03*
X51760000Y-40000000D03*
D16*
X44500000Y-65500000D03*
X94500000Y-39500000D03*
D10*
X88500000Y-60500000D03*
D11*
X86500000Y-60500000D03*
X84500000Y-60500000D03*
X82500000Y-60500000D03*
X80500000Y-60500000D03*
X78500000Y-60500000D03*
X76500000Y-60500000D03*
X74500000Y-60500000D03*
X72500000Y-60500000D03*
D17*
X82420000Y-65000000D03*
X77420000Y-65000000D03*
D16*
X44500000Y-39500000D03*
X94500000Y-65500000D03*
D18*
X44000000Y-60000000D03*
D19*
X46540000Y-60000000D03*
X49080000Y-60000000D03*
X51620000Y-60000000D03*
X54160000Y-60000000D03*
D20*
X78380000Y-60000000D02*
X78796852Y-60000000D01*
X77160000Y-55240000D02*
X77160000Y-57160000D01*
X77160000Y-57160000D02*
X80500000Y-60500000D01*
X79700000Y-55240000D02*
X79700000Y-57700000D01*
X79700000Y-57700000D02*
X82500000Y-60500000D01*
X82240000Y-58240000D02*
X84500000Y-60500000D01*
X82240000Y-55240000D02*
X82240000Y-58240000D01*
X84780000Y-58780000D02*
X86500000Y-60500000D01*
X84780000Y-55240000D02*
X84780000Y-58780000D01*
X73250000Y-54727500D02*
X73250000Y-59750000D01*
X87320000Y-55240000D02*
X85830000Y-53750000D01*
X74227500Y-53750000D02*
X73250000Y-54727500D01*
X72180000Y-60000000D02*
X72500000Y-60000000D01*
X85830000Y-53750000D02*
X74227500Y-53750000D01*
X73250000Y-59750000D02*
X72500000Y-60500000D01*
X70750000Y-61250000D02*
X71500000Y-62000000D01*
X73000000Y-62000000D02*
X74500000Y-60500000D01*
X80750000Y-44250000D02*
X70750000Y-54250000D01*
X70750000Y-54250000D02*
X70750000Y-61250000D01*
X71500000Y-62000000D02*
X73000000Y-62000000D01*
X87320000Y-40000000D02*
X83070000Y-44250000D01*
X74380000Y-60000000D02*
X74380000Y-59870000D01*
X83070000Y-44250000D02*
X80750000Y-44250000D01*
D21*
X69500000Y-67250000D02*
X62750000Y-60500000D01*
X84780000Y-40000000D02*
X86280000Y-38500000D01*
X88250000Y-67250000D02*
X69500000Y-67250000D01*
X61250000Y-62000000D02*
X56160000Y-62000000D01*
X91500000Y-64000000D02*
X88250000Y-67250000D01*
X86280000Y-38500000D02*
X88250000Y-38500000D01*
X91500000Y-41750000D02*
X91500000Y-64000000D01*
X88250000Y-38500000D02*
X91500000Y-41750000D01*
X56160000Y-62000000D02*
X54160000Y-60000000D01*
X62750000Y-60500000D02*
X61250000Y-62000000D01*
X54080000Y-65000000D02*
X63340000Y-65000000D01*
X49080000Y-60000000D02*
X54080000Y-65000000D01*
X59380000Y-40000000D02*
X49080000Y-50300000D01*
X49080000Y-50300000D02*
X49080000Y-60000000D01*
X77420000Y-65250000D02*
X77170000Y-65000000D01*
X77170000Y-65000000D02*
X73500000Y-65000000D01*
X84750000Y-65000000D02*
X82420000Y-65000000D01*
X88500000Y-60500000D02*
X88500000Y-61250000D01*
X88500000Y-61250000D02*
X84750000Y-65000000D01*
M02*
